<?xml version="1.0" encoding="utf-8"?>
<!DOCTYPE svg PUBLIC "-//W3C//DTD SVG 1.1//EN" "http://www.w3.org/Graphics/SVG/1.1/DTD/svg11.dtd">
<svg version="1.1" id="Layer_1" xmlns="http://www.w3.org/2000/svg" xmlns:xlink="http://www.w3.org/1999/xlink" x="0px" y="0px"
	 viewBox="0 0 300 300" style="enable-background:new 0 0 300 300;" xml:space="preserve">
<g>
	<path d="M39.3,115.6c0,0-24.3-29.8-34.2-69.5c0,0,36.7,11.2,76.7,4.2s88.1,36.5,88.1,36.5s91,80.9,125.3,78.4c0,0-26,33.7-145,32.5
		c0,0,67.6-13.6,88.7-33c0,0,3.8-4.4-0.3-6.4c-4.1-2-23.4-11.3-34.7-19.5c0,0-26.5,32.1-51.3-1.9c0,0,13.4,2.2,12.2-6.7
		c-1.2-8.9-9.2-10.9-12.9-8.3c0,0-0.2-8.2,10.9-11.7c0,0,0.7-0.8-0.6-2.1c-1.2-1.3-23.5-17.2-27.7-20.6c-4.2-3.3-13.1-3.7-18.4,2.2
		c-5.3,6-41.1,42,0.1,93.8c0,0-69.7-45.4-39.4-101.2c0,0,2.5-2.2,0-3s-23.3,3.5-46.4-9.2C30.1,70.2,22.2,87.3,39.3,115.6z"/>
	<circle cx="245.1" cy="231.1" r="11.5"/>
	<circle cx="190.3" cy="241.5" r="17"/>
</g>
</svg>
